<svg width="24" height="24" viewBox="0 0 24 24" fill="none" xmlns="http://www.w3.org/2000/svg"><path fill-rule="evenodd" clip-rule="evenodd" d="M23.708.297A1 1 0 0 0 23 .004h-2a13.908 13.908 0 0 0-5.38 1.077 1 1 0 0 0-.615.923V4.92a.035.035 0 0 1-.023.038l-2-1.47a1 1 0 0 0-1.265.052 14 14 0 0 0-4.717 10.463v1.585l-2.708 2.708a1 1 0 1 0 1.415 1.415l2.708-2.708H10a14.015 14.015 0 0 0 14-14v-2a1 1 0 0 0-.293-.707ZM18 24H3a3 3 0 0 1-3-3V6a3 3 0 0 1 3-3h3a1 1 0 0 1 0 2H3a1 1 0 0 0-1 1v15a1 1 0 0 0 1 1h15a1 1 0 0 0 1-1v-3a1 1 0 0 1 2 0v3a3 3 0 0 1-3 3Z" fill="currentColor"/></svg>