<svg width="24" height="24" viewBox="0 0 24 24" fill="none" xmlns="http://www.w3.org/2000/svg"><path fill-rule="evenodd" clip-rule="evenodd" d="m18.512 14.796 5.3 5.367c.25.25.25.65 0 .907l-2.706 2.736a.634.634 0 0 1-.912 0l-5.275-5.348a9.757 9.757 0 0 1-5.007 1.4C4.45 19.857 0 15.401 0 9.927 0 4.456 4.45 0 9.912 0c5.463 0 9.913 4.455 9.913 9.929 0 1.687-.45 3.361-1.313 4.867Zm-2.55-4.868c0-3.343-2.713-6.06-6.05-6.06-3.338 0-6.05 2.717-6.05 6.06 0 3.343 2.712 6.061 6.05 6.061 3.337 0 6.05-2.718 6.05-6.06Z" fill="currentColor"/></svg>